<svg xmlns="http://www.w3.org/2000/svg" width="180" height="56" viewBox="0 0 180 56">
    <g fill="none" fill-rule="evenodd">
        <rect width="180" height="56" fill="#000" rx="10.56"/>
        <g fill="#FFFFFE">
            <path d="M59.024 34.952h5.297l-2.611-7.625h-.072l-2.614 7.625zm5.99 2.169h-6.681l-1.605 4.698h-2.831l6.33-17.385h2.941l6.329 17.385h-2.879l-1.603-4.698zM80.47 35.483c0-2.566-1.338-4.253-3.378-4.253-2.004 0-3.353 1.722-3.353 4.253 0 2.554 1.349 4.264 3.353 4.264 2.04 0 3.379-1.675 3.379-4.264zm2.697 0c0 3.938-2.126 6.47-5.335 6.47-1.821 0-3.267-.808-4.02-2.218h-.061v6.277h-2.625V29.144h2.54v2.108h.048c.73-1.36 2.286-2.24 4.07-2.24 3.244 0 5.383 2.543 5.383 6.471zM94.537 35.483c0-2.566-1.337-4.253-3.377-4.253-2.004 0-3.352 1.722-3.352 4.253 0 2.554 1.348 4.264 3.352 4.264 2.04 0 3.377-1.675 3.377-4.264zm2.697 0c0 3.938-2.125 6.47-5.334 6.47-1.82 0-3.267-.808-4.02-2.218h-.061v6.277h-2.625V29.144h2.54v2.108h.048c.73-1.36 2.284-2.24 4.07-2.24 3.244 0 5.382 2.543 5.382 6.471zM106.533 36.975c.194 1.725 1.883 2.856 4.19 2.856 2.213 0 3.804-1.13 3.804-2.686 0-1.35-.96-2.158-3.232-2.71l-2.273-.544c-3.219-.771-4.714-2.264-4.714-4.687 0-2.999 2.637-5.06 6.38-5.06 3.704 0 6.244 2.061 6.329 5.06h-2.649c-.158-1.735-1.605-2.782-3.717-2.782-2.115 0-3.56 1.06-3.56 2.601 0 1.23.923 1.953 3.183 2.508l1.932.469c3.597.844 5.092 2.276 5.092 4.82 0 3.252-2.613 5.29-6.768 5.29-3.888 0-6.514-1.99-6.683-5.135h2.686M122.96 26.145v2.999h2.43v2.06h-2.43v6.988c0 1.086.486 1.592 1.555 1.592.267 0 .693-.037.862-.06v2.048c-.29.073-.873.12-1.457.12-2.587 0-3.597-.964-3.597-3.421v-7.266h-1.858v-2.061h1.858v-2.999h2.636M136.25 35.483c0-2.736-1.264-4.351-3.39-4.351-2.126 0-3.388 1.627-3.388 4.351 0 2.747 1.262 4.348 3.388 4.348s3.39-1.601 3.39-4.348zm-9.452 0c0-3.989 2.369-6.495 6.062-6.495 3.706 0 6.063 2.506 6.063 6.495 0 3.998-2.345 6.493-6.063 6.493-3.717 0-6.062-2.495-6.062-6.493zM141.086 29.144h2.503V31.3h.06c.402-1.433 1.568-2.289 3.074-2.289.377 0 .692.05.9.097v2.433c-.208-.084-.67-.157-1.18-.157-1.688 0-2.732 1.134-2.732 2.916v7.518h-2.625V29.144M150.85 34.314h6.39c-.061-1.94-1.312-3.217-3.135-3.217-1.81 0-3.121 1.302-3.255 3.217zm8.869 3.783c-.353 2.301-2.612 3.88-5.503 3.88-3.72 0-6.027-2.47-6.027-6.434 0-3.976 2.32-6.555 5.916-6.555 3.537 0 5.76 2.41 5.76 6.253v.892h-9.028v.156c0 2.169 1.374 3.59 3.44 3.59 1.456 0 2.6-.686 2.951-1.782h2.49zM56.962 18.52h1.588c1.762 0 2.777-1.087 2.777-3.004 0-1.887-1.032-2.987-2.777-2.987h-1.588v5.992zm1.734-7.172c2.498 0 3.964 1.522 3.964 4.151 0 2.669-1.454 4.203-3.964 4.203h-3.043v-8.354h3.043zM68.843 16.547c0-1.367-.62-2.165-1.705-2.165-1.091 0-1.704.798-1.704 2.165 0 1.377.613 2.171 1.704 2.171 1.086 0 1.705-.8 1.705-2.171zm-4.705 0c0-2.032 1.143-3.27 3-3.27 1.85 0 2.996 1.238 2.996 3.27 0 2.044-1.14 3.277-2.996 3.277-1.862 0-3-1.233-3-3.277zM78.103 19.702h-1.302l-1.313-4.644h-.1l-1.307 4.644h-1.289l-1.753-6.304h1.273l1.138 4.81h.094l1.308-4.81h1.203l1.307 4.81h.099l1.133-4.81h1.255l-1.746 6.304M81.323 13.398h1.207v1.001h.094c.309-.7.94-1.123 1.897-1.123 1.419 0 2.2.844 2.2 2.345v4.081h-1.254v-3.769c0-1.013-.443-1.517-1.372-1.517-.928 0-1.518.614-1.518 1.597v3.69h-1.254v-6.305M88.72 19.702h1.256v-8.765h-1.255zM96.425 16.547c0-1.367-.62-2.165-1.705-2.165-1.092 0-1.704.798-1.704 2.165 0 1.377.612 2.171 1.704 2.171 1.085 0 1.705-.8 1.705-2.171zm-4.705 0c0-2.032 1.143-3.27 3-3.27 1.85 0 2.995 1.238 2.995 3.27 0 2.044-1.139 3.277-2.995 3.277-1.863 0-3-1.233-3-3.277zM103.122 17.381v-.528l-1.551.098c-.875.059-1.272.354-1.272.91 0 .567.495.898 1.177.898.946 0 1.646-.597 1.646-1.378zm-4.085.538c0-1.134.851-1.79 2.364-1.882l1.721-.098v-.545c0-.665-.443-1.041-1.3-1.041-.7 0-1.186.255-1.326.7h-1.214c.129-1.082 1.155-1.777 2.598-1.777 1.594 0 2.492.787 2.492 2.118v4.308h-1.207v-.886h-.1c-.379.631-1.073.99-1.91.99-1.225 0-2.118-.735-2.118-1.887zM107.317 16.547c0 1.337.635 2.142 1.698 2.142 1.057 0 1.711-.817 1.711-2.137 0-1.313-.66-2.142-1.71-2.142-1.057 0-1.7.81-1.7 2.137zm-1.296 0c0-1.993 1.033-3.254 2.638-3.254.871 0 1.605.412 1.95 1.106h.095v-3.462h1.253v8.765h-1.201v-.997h-.1c-.379.69-1.121 1.1-1.997 1.1-1.616 0-2.638-1.26-2.638-3.258zM121.854 16.547c0-1.367-.62-2.165-1.706-2.165-1.091 0-1.704.798-1.704 2.165 0 1.377.613 2.171 1.704 2.171 1.086 0 1.706-.8 1.706-2.171zm-4.706 0c0-2.032 1.145-3.27 3-3.27 1.851 0 2.996 1.238 2.996 3.27 0 2.044-1.14 3.277-2.996 3.277-1.86 0-3-1.233-3-3.277zM124.828 13.398h1.207v1.001h.093c.31-.7.94-1.123 1.898-1.123 1.419 0 2.2.844 2.2 2.345v4.081h-1.254v-3.769c0-1.013-.444-1.517-1.372-1.517-.928 0-1.518.614-1.518 1.597v3.69h-1.254v-6.305M137.315 11.829v1.597h1.378v1.049h-1.378v3.24c0 .661.276.951.9.951.193 0 .303-.012.478-.03v1.037c-.205.035-.439.064-.683.064-1.395 0-1.95-.487-1.95-1.702v-3.56h-1.01v-1.049h1.01v-1.597h1.255M140.407 10.937h1.244v3.473h.099c.307-.705.98-1.128 1.938-1.128 1.354 0 2.19.851 2.19 2.35v4.07h-1.257V15.94c0-1.007-.473-1.518-1.36-1.518-1.027 0-1.6.644-1.6 1.6v3.681h-1.254v-8.765M148.779 15.968h3.212c-.03-.99-.637-1.633-1.566-1.633-.928 0-1.576.65-1.646 1.633zM153.192 18c-.285 1.13-1.302 1.824-2.754 1.824-1.822 0-2.937-1.239-2.937-3.255 0-2.015 1.14-3.293 2.931-3.293 1.769 0 2.836 1.199 2.836 3.178v.434h-4.49v.07c.043 1.105.691 1.806 1.694 1.806.76 0 1.28-.273 1.513-.764h1.207z"/>
        </g>
        <path fill="#FFFFFE" d="M36.733 27.546c.04 4.618 4.071 6.142 4.12 6.159-.023.106-.63 2.202-2.142 4.329-1.264 1.873-2.588 3.704-4.689 3.738-2.041.046-2.727-1.193-5.07-1.193-2.363 0-3.094 1.16-5.052 1.239-2.002.074-3.531-2-4.84-3.856-2.614-3.788-4.652-10.677-1.921-15.365 1.323-2.298 3.737-3.78 6.315-3.819 2.003-.042 3.862 1.341 5.093 1.341 1.209 0 3.507-1.654 5.877-1.407.992.028 3.815.388 5.636 3.02-.148.088-3.363 1.963-3.327 5.814zM32.876 16.22c-1.099 1.286-2.858 2.27-4.57 2.142-.223-1.734.644-3.58 1.615-4.705 1.098-1.278 3.004-2.257 4.529-2.324.199 1.805-.521 3.581-1.574 4.887z"/>
    </g>
</svg>
