<svg xmlns="http://www.w3.org/2000/svg" xmlns:xlink="http://www.w3.org/1999/xlink" width="180" height="56" viewBox="0 0 180 56">
    <defs>
        <linearGradient id="b" x1="50%" x2="50%" y1="0%" y2="38.913%">
            <stop offset="0%" stop-color="#FBDA09"/>
            <stop offset="100%" stop-color="#FFBC00"/>
        </linearGradient>
        <path id="a" d="M13.92 3.956c1.01-1.778 2.647-1.78 3.658 0l14.305 25.172c1.01 1.778.168 3.22-1.88 3.22H1.496c-2.05 0-2.891-1.441-1.88-3.22L13.919 3.956z"/>
        <linearGradient id="c" x1="37.539%" x2="54.812%" y1="58.476%" y2="39.083%">
            <stop offset="0%" stop-color="#01E2FF"/>
            <stop offset="100%" stop-color="#01C4FF"/>
        </linearGradient>
        <linearGradient id="e" x1="20.281%" x2="83.82%" y1="32.4%" y2="69.792%">
            <stop offset="0%" stop-color="#28D781"/>
            <stop offset="100%" stop-color="#02F076"/>
        </linearGradient>
        <linearGradient id="f" x1="74.488%" x2="10.108%" y1="35.141%" y2="68.789%">
            <stop offset="0%" stop-color="#F2414E"/>
            <stop offset="100%" stop-color="#E02554"/>
        </linearGradient>
    </defs>
    <g fill="none" fill-rule="evenodd">
        <rect width="180" height="56" fill="#000" rx="10.56"/>
        <g fill="#FFF">
            <path d="M54.25 18.44c1.277 0 2.316-.417 3.112-1.25.702-.698 1.052-1.638 1.052-2.816a3.46 3.46 0 0 0-.06-.636h-4.103v1.013h3.076c-.064.731-.3 1.3-.71 1.71-.631.629-1.42.942-2.366.942a3.229 3.229 0 0 1-2.314-.936c-.651-.626-.976-1.436-.976-2.435 0-.997.325-1.808.976-2.432a3.223 3.223 0 0 1 2.314-.937c.985 0 1.757.333 2.32 1.001l.743-.742c-.33-.393-.773-.708-1.325-.944a4.388 4.388 0 0 0-1.738-.353c-1.223 0-2.263.422-3.117 1.267-.856.844-1.284 1.892-1.284 3.14 0 1.25.428 2.297 1.284 3.142.854.844 1.894 1.266 3.117 1.266M64.922 17.215h-3.857V14.54h3.477v-1.014h-3.477V10.85h3.857V9.813h-4.946v8.438h4.946zM69.511 18.251v-7.4h2.366V9.813h-5.82v1.036h2.366v7.401zM76.088 18.252h1.089V9.813h-1.089zM82.005 18.251v-7.4h2.366V9.813h-5.82v1.036h2.365v7.401zM89.982 11.61c.627-.632 1.394-.947 2.302-.947.906 0 1.674.315 2.3.948.628.633.942 1.44.942 2.421 0 .982-.314 1.79-.941 2.422-.627.633-1.395.95-2.301.95-.908 0-1.675-.317-2.302-.95-.625-.632-.94-1.44-.94-2.422 0-.981.315-1.788.94-2.421m2.302 6.829c1.238 0 2.273-.427 3.106-1.279.831-.852 1.248-1.895 1.248-3.129 0-1.225-.418-2.267-1.254-3.123-.837-.855-1.87-1.284-3.1-1.284-1.238 0-2.273.426-3.105 1.28-.833.852-1.248 1.894-1.248 3.127 0 1.234.415 2.277 1.248 3.13.832.851 1.867 1.278 3.105 1.278M99.253 12.996l-.047-1.626h.047l4.307 6.88h1.135V9.814h-1.088v4.94l.046 1.625h-.046L99.49 9.813h-1.326v8.438h1.089z"/>
            <g>
                <path d="M58.873 32.393v2.537h6.096c-.182 1.428-.659 2.47-1.387 3.195-.887.883-2.275 1.858-4.709 1.858-3.752 0-6.686-3.014-6.686-6.751 0-3.74 2.934-6.752 6.686-6.752 2.025 0 3.503.793 4.594 1.813l1.797-1.79c-1.523-1.45-3.547-2.56-6.39-2.56-5.14 0-9.462 4.168-9.462 9.289 0 5.12 4.321 9.288 9.461 9.288 2.775 0 4.868-.906 6.506-2.605 1.683-1.677 2.205-4.033 2.205-5.937 0-.588-.045-1.132-.136-1.585h-8.575zM135.265 33.05h-3.747v-6.025h3.747c1.97 0 3.088 1.624 3.088 3.012 0 1.363-1.118 3.014-3.088 3.014m-.069-8.473h-6.312v17.58h2.634v-6.66h3.678c2.92 0 5.791-2.106 5.791-5.461 0-3.354-2.87-5.46-5.791-5.46M142.44 42.158h2.633v-17.58h-2.633zM151.226 40.16c-.861 0-2.065-.43-2.065-1.493 0-1.355 1.499-1.875 2.794-1.875 1.156 0 1.702.247 2.405.586a3.19 3.19 0 0 1-3.134 2.783m.32-9.636c-1.908 0-3.883.838-4.702 2.693l2.34.972c.498-.972 1.43-1.29 2.406-1.29 1.363 0 2.748.815 2.77 2.262v.181c-.477-.271-1.5-.678-2.748-.678-2.52 0-5.086 1.38-5.086 3.957 0 2.353 2.067 3.868 4.382 3.868 1.77 0 2.75-.79 3.36-1.719h.092v1.357h2.543v-6.74c0-3.12-2.34-4.863-5.358-4.863M166.167 30.91l-3.02 7.622h-.09l-3.134-7.622h-2.838l4.7 10.653-2.68 5.926h2.747l7.244-16.579zM74.514 40.164c-1.82 0-3.388-1.495-3.388-3.625 0-2.152 1.568-3.624 3.388-3.624 1.82 0 3.388 1.472 3.388 3.624 0 2.13-1.568 3.625-3.388 3.625m0-9.606c-3.32 0-6.027 2.516-6.027 5.98 0 3.445 2.706 5.982 6.027 5.982 3.322 0 6.028-2.537 6.028-5.981 0-3.465-2.706-5.98-6.028-5.98M114.65 36.358c-.068-2.312 1.797-3.489 3.14-3.489 1.046 0 1.932.522 2.229 1.269l-5.37 2.22zm8.188-1.994c-.501-1.336-2.024-3.807-5.14-3.807-3.093 0-5.664 2.426-5.664 5.983 0 3.352 2.548 5.98 5.959 5.98 2.753 0 4.344-1.677 5.005-2.65l-2.047-1.36c-.684.997-1.616 1.655-2.958 1.655-1.341 0-2.297-.613-2.91-1.814l8.028-3.308-.273-.679zM87.662 40.164c-1.82 0-3.388-1.495-3.388-3.625 0-2.152 1.568-3.624 3.388-3.624 1.82 0 3.388 1.472 3.388 3.624 0 2.13-1.568 3.625-3.388 3.625m0-9.606c-3.32 0-6.027 2.516-6.027 5.98 0 3.445 2.707 5.982 6.027 5.982 3.322 0 6.028-2.537 6.028-5.981 0-3.465-2.706-5.98-6.028-5.98M100.776 40.164c-1.82 0-3.343-1.519-3.343-3.603 0-2.106 1.523-3.646 3.343-3.646 1.796 0 3.206 1.54 3.206 3.646 0 2.084-1.41 3.603-3.206 3.603zm3.026-8.269h-.092c-.592-.703-1.728-1.337-3.161-1.337-3.003 0-5.755 2.628-5.755 6.003 0 3.354 2.752 5.959 5.755 5.959 1.433 0 2.57-.635 3.16-1.36h.093v.862c0 2.288-1.23 3.511-3.208 3.511-1.614 0-2.615-1.154-3.024-2.129l-2.297.95c.658 1.587 2.41 3.536 5.321 3.536 3.095 0 5.71-1.812 5.71-6.23V30.92h-2.502v.974zM108.123 42.158h2.637v-17.58h-2.637z"/>
            </g>
        </g>
        <g transform="translate(9.706 11.25)">
            <mask id="d" fill="#fff">
                <use xlink:href="#a"/>
            </mask>
            <use fill="url(#b)" transform="rotate(90 15.75 17.49)" xlink:href="#a"/>
            <path fill="url(#c)" d="M.882.926l16.382 16.297L.67 34.163z" mask="url(#d)"/>
            <path fill="url(#e)" d="M-2.486-2.429l19.748 19.656 5.871-5.606z" mask="url(#d)"/>
            <path fill="url(#f)" d="M17.264 17.224l8.989 9.068L-.6 35.36z" mask="url(#d)"/>
        </g>
    </g>
</svg>
