<svg xmlns="http://www.w3.org/2000/svg" width="20" height="20" viewBox="0 0 20 20">
    <path fill="#D4D6E3" fill-rule="evenodd" d="M13.333 8.333V1.667H1.667v16.666h1.666v-5c0-.46.373-.833.834-.833h6.666c.461 0 .834.373.834.833v5h1.666v-10zm1.667 0h3a2 2 0 0 1 2 2V18a2 2 0 0 1-2 2H1.667C.747 20 0 19.253 0 18.333V1.667C0 .747.747 0 1.667 0h11.666C14.253 0 15 .747 15 1.667v6.666zM15 10v8.333h3.333V10H15zM5 18.333h5v-4.166H5v4.166zm5.833-12.5H4.167A.833.833 0 0 1 3.333 5v-.008c0-.456.37-.825.825-.825h6.667c.46 0 .833.373.833.833v.008c0 .456-.369.825-.825.825zm0 4.167H4.167a.833.833 0 0 1-.834-.833v-.009c0-.455.37-.825.825-.825h6.667c.46 0 .833.374.833.834v.008c0 .456-.369.825-.825.825z"/>
</svg>
