<svg xmlns="http://www.w3.org/2000/svg" width="24" height="24" viewBox="0 0 24 24">
    <path fill="#404360" fill-rule="evenodd" d="M8.645 11.998a3.51 3.51 0 0 0 0 2H3v5a1 1 0 0 0 1 1h16a1 1 0 0 0 1-1v-5h-5.645a3.51 3.51 0 0 0 0-2H22a1 1 0 0 1 1 1v6a3 3 0 0 1-3 3H4a3 3 0 0 1-3-3v-6a1 1 0 0 1 1-1h6.645zm-2.645 6a1 1 0 1 1 0-2 1 1 0 0 1 0 2zm6-3a2 2 0 1 1 0-4 2 2 0 0 1 0 4zM8.467 9.463A1 1 0 1 1 7.053 8.05a6.999 6.999 0 0 1 9.905 0 1 1 0 1 1-1.416 1.414 5 5 0 0 0-7.075 0zm-2.83-2.83a1 1 0 1 1-1.414-1.413C8.519.926 15.481.926 19.777 5.22a1 1 0 0 1-1.414 1.413 9 9 0 0 0-12.726 0z"/>
</svg>
