<svg xmlns="http://www.w3.org/2000/svg" width="21" height="28" viewBox="0 0 21 28">
    <g fill="#D4D6E3" fill-rule="evenodd">
        <path d="M10.317 9.882c1.06 0 1.918.842 1.918 1.88 0 1.039-.858 1.88-1.918 1.88-1.059 0-1.917-.841-1.917-1.88 0-1.038.858-1.88 1.917-1.88zm0 5.353c1.06 0 1.918.842 1.918 1.88 0 1.038-.858 1.88-1.918 1.88-1.059 0-1.917-.842-1.917-1.88 0-1.038.858-1.88 1.917-1.88z"/>
        <path d="M10.397 7.21c-2.03 0-3.677-1.614-3.677-3.605C6.72 1.614 8.366 0 10.397 0c2.03 0 3.677 1.614 3.677 3.605 0 1.99-1.646 3.605-3.677 3.605zm-.78 20.389C4.317 27.209 0 22.416 0 17.206v-7.131a.61.61 0 0 1 .616-.604h3.86c.34 0 .616.27.616.604v7.201c0 2.572 1.836 4.87 4.424 5.287 3.331.538 6.223-1.98 6.223-5.147V10.09c0-.342.284-.62.633-.62h3.827c.35 0 .632.278.632.62v7.326c0 5.89-5.112 10.63-11.214 10.183z"/>
    </g>
</svg>
