<svg xmlns="http://www.w3.org/2000/svg" width="83" height="28" viewBox="0 0 83 28">
    <g fill="#D4D6E3" fill-rule="evenodd">
        <path id="wordmark-circles" d="M10.072 9.744c1.034 0 1.872.83 1.872 1.854a1.863 1.863 0 0 1-1.872 1.854A1.863 1.863 0 0 1 8.2 11.598c0-1.024.838-1.854 1.872-1.854zm0 5.278c1.034 0 1.872.83 1.872 1.853a1.863 1.863 0 0 1-1.872 1.854A1.863 1.863 0 0 1 8.2 16.875c0-1.023.838-1.853 1.872-1.853z"/>
        <path id="wordmark-lettering" d="M10.15 7.109c-1.983 0-3.59-1.591-3.59-3.555C6.56 1.591 8.167 0 10.15 0c1.982 0 3.59 1.591 3.59 3.554 0 1.964-1.608 3.555-3.59 3.555zm36.835 20.136a.652.652 0 0 1-.655-.648V9.987c0-.359.293-.649.655-.649h3.932c.363 0 .656.29.656.649v16.61a.652.652 0 0 1-.656.648h-3.932zm30.75 0a.652.652 0 0 1-.655-.648V9.987c0-.359.294-.649.656-.649h3.932c.362 0 .655.29.655.649v16.61a.652.652 0 0 1-.655.648h-3.932zm-20.91 0a.652.652 0 0 1-.655-.648V9.987c0-.359.294-.649.656-.649h4.001c.362 0 .835.29 1.056.649l5.425 8.776V9.987c0-.359.293-.649.655-.649h3.933c.362 0 .655.29.655.649v16.61a.652.652 0 0 1-.655.648h-3.933c-.362 0-.835-.29-1.056-.648l-5.494-8.888v8.888a.651.651 0 0 1-.655.648h-3.932zm-47.437-.033C4.214 26.828 0 22.102 0 16.965V9.934c0-.33.269-.596.601-.596H4.37c.332 0 .601.267.601.596v7.1c0 2.536 1.793 4.802 4.32 5.214 3.251.53 6.075-1.952 6.075-5.075V9.949c0-.338.276-.611.617-.611h3.736c.34 0 .617.273.617.61v7.225c0 5.807-4.99 10.481-10.947 10.04zm19.732-13.43v9.02h4.552c2.283 0 4.271-1.61 4.626-3.745a4.5 4.5 0 0 0-1.018-3.68 4.569 4.569 0 0 0-3.473-1.595H29.12zm-3.865 13.464a.652.652 0 0 1-.655-.65V9.987c0-.357.293-.648.655-.648h8.659a9.112 9.112 0 0 1 6.628 2.87 8.822 8.822 0 0 1 2.388 6.77c-.34 4.481-4.55 8.268-9.194 8.268h-8.481z"/>
    </g>
</svg>
