<?xml version="1.0" encoding="utf-8"?>
<!-- Generator: Adobe Illustrator 22.1.0, SVG Export Plug-In . SVG Version: 6.00 Build 0)  -->
<svg version="1.1" id="Layer_1" xmlns="http://www.w3.org/2000/svg" xmlns:xlink="http://www.w3.org/1999/xlink" x="0px" y="0px"
	 viewBox="0 0 24 24" style="enable-background:new 0 0 24 24;" xml:space="preserve">
<path d="M23,11h-6c-0.6,0-1-0.4-1-1s0.4-1,1-1h5V4c0-0.6,0.4-1,1-1s1,0.4,1,1v6C24,10.6,23.6,11,23,11z"/>
<path d="M1,21c-0.6,0-1-0.4-1-1v-6c0-0.6,0.4-1,1-1h6c0.6,0,1,0.4,1,1s-0.4,1-1,1H2v5C2,20.6,1.6,21,1,21z"/>
<path d="M12,22C12,22,12,22,12,22c-2.7,0-5.2-1-7.1-2.9l-4.6-4.3c-0.4-0.4-0.4-1,0-1.4c0.4-0.4,1-0.4,1.4,0l4.6,4.4
	C7.9,19.2,9.9,20,12,20c0,0,0,0,0,0c2.1,0,4.1-0.8,5.7-2.3c0.8-0.8,1.5-1.9,1.9-3c0.2-0.5,0.8-0.8,1.3-0.6c0.5,0.2,0.8,0.8,0.6,1.3
	c-0.5,1.4-1.3,2.7-2.4,3.7C17.2,21,14.7,22,12,22z M23,11c-0.2,0-0.5-0.1-0.7-0.3l-4.6-4.4c-0.9-0.9-1.9-1.5-3-1.9
	c-2-0.7-4.2-0.6-6.1,0.3C6.6,5.7,5.2,7.3,4.5,9.3c-0.2,0.5-0.8,0.8-1.3,0.6C2.7,9.8,2.4,9.2,2.6,8.7C3.5,6.1,5.3,4.1,7.7,3
	c2.4-1.2,5.1-1.3,7.6-0.4c1.4,0.5,2.7,1.3,3.7,2.4l4.6,4.3c0.4,0.4,0.4,1,0,1.4C23.5,10.9,23.3,11,23,11z"/>
</svg>
